<svg width="250" height="250" viewBox="0 0 250 250" fill="none" xmlns="http://www.w3.org/2000/svg">
<path fill-rule="evenodd" clip-rule="evenodd" d="M235.441 139.26C225.236 149.465 193.488 148.709 161.74 184.237C155.315 191.418 149.646 202.378 146.622 210.315C146.622 210.315 139.819 189.15 134.15 175.922C135.283 180.835 143.22 212.205 143.22 212.205C127.346 205.78 119.031 196.709 89.5512 195.575C64.6063 194.819 49.8661 203.134 29.0787 205.024C21.1417 185.371 13.9606 157.024 7.53543 136.615C7.15748 136.993 3 138.126 3 138.126C4.13386 144.174 24.9213 211.449 27.189 216.741C51.378 214.473 84.6378 198.221 121.299 207.67C131.504 210.315 140.197 215.607 148.134 217.497C159.094 189.906 189.331 171.386 215.787 160.426C224.858 156.646 238.843 153.245 246.402 147.953C238.465 120.741 226.748 83.7012 221.079 66.6934C218.055 67.8272 215.787 68.2052 214.654 68.9611C216.921 79.9217 230.906 124.142 235.441 139.26Z" fill="#333366"/>
<path fill-rule="evenodd" clip-rule="evenodd" d="M153.047 119.607C155.315 101.087 152.291 85.9688 139.441 79.1657C120.921 69.3389 106.937 80.2995 98.6221 83.7011C114.496 39.1027 117.142 40.2365 150.024 44.0161C166.654 46.2838 168.543 48.1735 171.945 33.4334C142.087 33.0554 115.63 25.4964 104.669 49.3074C99.7559 59.1342 96.3544 69.7168 92.1969 79.9216C85.0158 98.4413 78.9685 99.1972 77.8347 104.111C77.0788 107.134 77.4567 109.78 81.2363 110.158C95.2205 111.292 87.6615 90.8822 115.63 85.9688C139.819 81.4334 145.488 97.3074 142.843 118.095C139.441 144.551 102.402 179.701 72.1654 175.544C58.5591 173.654 58.937 166.473 55.5355 160.803C52.5118 156.268 49.4882 158.536 48.7323 161.937C45.7087 175.922 68.3859 193.685 105.803 178.189C125.457 169.874 147.756 142.284 153.047 119.607Z" fill="#333366"/>
<path fill-rule="evenodd" clip-rule="evenodd" d="M164.764 93.15C165.898 87.4807 165.898 82.9453 173.079 82.9453C174.591 82.9453 176.102 83.7012 174.969 89.7485C174.591 93.9059 167.41 118.095 168.165 119.229C171.189 119.985 193.866 117.717 199.913 118.095C203.693 118.473 204.827 118.851 205.205 119.985C206.717 122.63 204.449 127.166 201.047 127.922C194.622 129.434 168.543 126.032 166.276 127.544C164.386 128.678 160.228 155.512 157.961 165.339C157.205 168.741 154.937 169.496 152.291 169.119C150.024 169.119 159.472 128.678 158.339 127.544C156.827 126.032 127.724 129.811 124.701 127.544C123.189 126.41 122.811 123.764 124.323 122.63C130.748 119.607 152.291 121.119 159.85 119.607C161.362 118.095 162.496 104.111 164.764 93.15Z" fill="#EB1C23"/>
</svg>
