<svg width="72" height="72" viewBox="0 0 72 72" fill="none" xmlns="http://www.w3.org/2000/svg">
<rect width="72" height="72" rx="7" fill="white"/>
<path d="M22.24 32H14.08C13.7867 32 13.5333 31.8933 13.32 31.68C13.1067 31.4667 13 31.2133 13 30.92V5.08C13 4.78667 13.1067 4.53333 13.32 4.32C13.5333 4.10667 13.7867 4 14.08 4H22.24C22.5333 4 22.7867 4.10667 23 4.32C23.2133 4.53333 23.32 4.78667 23.32 5.08V30.92C23.32 31.2133 23.2133 31.4667 23 31.68C22.7867 31.8933 22.5333 32 22.24 32Z" fill="#4E4CCC"/>
<path d="M34.9878 4H58.4278C58.7211 4 58.9745 4.10667 59.1878 4.32C59.4011 4.53333 59.5078 4.78667 59.5078 5.08V11.52C59.5078 11.8133 59.4011 12.0667 59.1878 12.28C58.9745 12.4933 58.7211 12.6 58.4278 12.6H51.7878V30.92C51.7878 31.2133 51.6811 31.4667 51.4678 31.68C51.2545 31.8933 51.0011 32 50.7078 32H42.7078C42.4145 32 42.1611 31.8933 41.9478 31.68C41.7345 31.4667 41.6278 31.2133 41.6278 30.92V12.6H34.9878C34.6945 12.6 34.4411 12.4933 34.2278 12.28C34.0145 12.0667 33.9078 11.8133 33.9078 11.52V5.08C33.9078 4.78667 34.0145 4.53333 34.2278 4.32C34.4411 4.10667 34.6945 4 34.9878 4Z" fill="#4E4CCC"/>
<path d="M45.8031 60.2H58.1231C58.4165 60.2 58.6698 60.3067 58.8831 60.52C59.0965 60.7333 59.2031 60.9867 59.2031 61.28V66.92C59.2031 67.2133 59.0965 67.4667 58.8831 67.68C58.6698 67.8933 58.4165 68 58.1231 68H37.2831C36.9898 68 36.7365 67.8933 36.5231 67.68C36.3098 67.4667 36.2031 67.2133 36.2031 66.92V41.08C36.2031 40.7867 36.3098 40.5333 36.5231 40.32C36.7365 40.1067 36.9898 40 37.2831 40H57.8031C58.0965 40 58.3498 40.1067 58.5631 40.32C58.7765 40.5333 58.8831 40.7867 58.8831 41.08V46.72C58.8831 47.0133 58.7765 47.2667 58.5631 47.48C58.3498 47.6933 58.0965 47.8 57.8031 47.8H45.8031V50.32H56.9231C57.2165 50.32 57.4698 50.4267 57.6831 50.64C57.8965 50.8533 58.0031 51.1067 58.0031 51.4V56.6C58.0031 56.8933 57.8965 57.1467 57.6831 57.36C57.4698 57.5733 57.2165 57.68 56.9231 57.68H45.8031V60.2Z" fill="#4E4CCC"/>
</svg>
